<svg xmlns="http://www.w3.org/2000/svg" viewBox="0 0 760 190" role="img" aria-label="Timeless Entertainment logo">
  <defs>
    <linearGradient id="ink" x1="0" x2="1" y1="0" y2="1">
      <stop offset="0" stop-color="#050505"/>
      <stop offset="1" stop-color="#333333"/>
    </linearGradient>
  </defs>
  <rect width="760" height="190" rx="22" fill="#f7f7f7"/>
  <g transform="translate(44 45)" fill="none" stroke="url(#ink)" stroke-linecap="round" stroke-linejoin="round">
    <path d="M10 0h82" stroke-width="9"/>
    <path d="M10 100h82" stroke-width="9"/>
    <path d="M28 10c8 22 24 34 23 40-1 8-20 20-27 40" stroke-width="8"/>
    <path d="M74 10c-8 22-24 34-23 40 1 8 20 20 27 40" stroke-width="8"/>
    <path d="M51 52l-14 15h28z" fill="#111111" stroke="none"/>
    <path d="M98 28l20-12M104 50h22M98 72l20 12" stroke-width="6"/>
  </g>
  <g fill="url(#ink)">
    <text x="178" y="88" font-family="Georgia, 'Times New Roman', serif" font-size="66" font-weight="700" letter-spacing="1">Timeless</text>
    <text x="182" y="136" font-family="Arial, Helvetica, sans-serif" font-size="32" font-weight="900" letter-spacing="6">ENTERTAINMENT</text>
  </g>
</svg>
